<svg data-v-423bf9ae="" xmlns="http://www.w3.org/2000/svg" viewBox="0 0 773.6385033030521 193" class="fontAboveSlogan"><!----><!----><!----><g data-v-423bf9ae="" id="2e51a4ec-4845-4cd7-910b-f340c3fdd427" fill="white" transform="matrix(9.153318317508958,0,0,9.153318317508958,-0.06385884016538057,-66.5192257497746)"><path d="M9.70 16.64L9.71 16.89L9.63 17.09L7.55 17.09L7.39 16.80L7.39 16.80Q7.46 13.06 7.46 12.41L7.46 12.41L7.46 12.41Q7.46 12.35 7.42 12.30L7.42 12.30L7.42 12.30Q7.38 12.24 7.29 12.24L7.29 12.24L2.50 12.24L2.50 12.24Q2.42 12.24 2.37 12.29L2.37 12.29L2.37 12.29Q2.31 12.35 2.31 12.41L2.31 12.41L2.31 12.41Q2.31 12.71 2.30 13.46L2.30 13.46L2.30 13.46Q2.30 14.20 2.30 14.59L2.30 14.59L2.30 14.59Q2.30 16.03 2.38 16.73L2.38 16.73L1.09 17.12L1.00 17.05L1.00 17.05Q1.15 15.39 1.15 11.95L1.15 11.95L1.15 11.95Q1.15 9.63 1.07 8.46L1.07 8.46L1.07 8.46Q1.06 8.35 1.03 8.29L1.03 8.29L1.03 8.29Q1.00 8.22 0.92 8.17L0.92 8.17L0.92 8.17Q0.83 8.11 0.75 8.09L0.75 8.09L0.75 8.09Q0.67 8.06 0.45 7.99L0.45 7.99L0.45 7.99Q0.23 7.92 0.04 7.86L0.04 7.86L0.03 7.59L0.12 7.50L2.39 7.50L2.46 7.57L2.46 7.57Q2.28 8.56 2.28 11.53L2.28 11.53L2.28 11.53Q2.28 11.70 2.45 11.70L2.45 11.70L7.29 11.70L7.29 11.70Q7.46 11.70 7.46 11.53L7.46 11.53L7.46 11.53Q7.46 10.93 7.44 9.60L7.44 9.60L7.44 9.60Q7.42 8.27 7.42 7.67L7.42 7.67L8.65 7.43L8.72 7.51L8.72 7.51Q8.57 9.68 8.57 12.58L8.57 12.58L8.57 12.58Q8.57 14.28 8.63 15.98L8.63 15.98L8.63 15.98Q8.63 16.16 8.78 16.30L8.78 16.30L8.78 16.30Q8.93 16.43 9.13 16.50L9.13 16.50L9.13 16.50Q9.34 16.57 9.49 16.60L9.49 16.60L9.49 16.60Q9.65 16.64 9.70 16.64L9.70 16.64ZM11.91 11.60L11.91 11.60L11.80 14.54L11.80 14.54Q11.80 15.37 11.93 15.78L11.93 15.78L11.93 15.78Q12.07 16.18 12.41 16.18L12.41 16.18L12.41 16.18Q12.78 16.18 13.07 16.02L13.07 16.02L13.07 16.02Q13.36 15.86 13.71 15.55L13.71 15.55L13.88 15.69L13.88 15.85L13.88 15.85Q12.85 17.20 11.91 17.20L11.91 17.20L11.91 17.20Q11.65 17.20 11.47 17.15L11.47 17.15L11.47 17.15Q11.30 17.10 11.13 16.94L11.13 16.94L11.13 16.94Q10.96 16.79 10.88 16.46L10.88 16.46L10.88 16.46Q10.79 16.13 10.79 15.63L10.79 15.63L10.88 12.54L10.88 12.54Q10.88 11.35 10.38 11.35L10.38 11.35L10.38 11.35Q9.97 11.35 9.26 11.80L9.26 11.80L9.08 11.55L9.08 11.55Q10.39 10.49 11.05 10.49L11.05 10.49L11.05 10.49Q11.49 10.49 11.70 10.80L11.70 10.80L11.70 10.80Q11.91 11.10 11.91 11.60ZM12.11 8.34L12.11 8.34L12.11 8.34Q12.09 8.69 11.85 8.91L11.85 8.91L11.85 8.91Q11.61 9.13 11.27 9.13L11.27 9.13L11.27 9.13Q10.93 9.13 10.69 8.89L10.69 8.89L10.69 8.89Q10.45 8.65 10.45 8.31L10.45 8.31L10.45 8.31Q10.45 7.97 10.74 7.75L10.74 7.75L10.74 7.75Q11.03 7.53 11.35 7.53L11.35 7.53L11.35 7.53Q11.70 7.53 11.90 7.77L11.90 7.77L11.90 7.77Q12.11 8.01 12.11 8.34ZM17.27 15.52L17.27 15.52L17.42 15.52L17.58 15.69L17.58 15.69Q16.58 17.25 15.45 17.25L15.45 17.25L15.45 17.25Q15.07 17.25 14.83 17.10L14.83 17.10L14.83 17.10Q14.59 16.95 14.45 16.50L14.45 16.50L14.45 16.50Q14.30 16.05 14.30 15.27L14.30 15.27L14.40 9.98L14.40 9.98Q14.40 8.95 14.33 8.58L14.33 8.58L14.33 8.58Q14.31 8.49 14.26 8.42L14.26 8.42L14.26 8.42Q14.21 8.35 14.12 8.31L14.12 8.31L14.12 8.31Q14.03 8.27 13.96 8.24L13.96 8.24L13.96 8.24Q13.88 8.21 13.75 8.20L13.75 8.20L13.75 8.20Q13.62 8.18 13.54 8.18L13.54 8.18L13.54 8.18Q13.46 8.17 13.31 8.16L13.31 8.16L13.31 8.16Q13.17 8.16 13.11 8.16L13.11 8.16L13.11 7.83L13.20 7.77L15.50 7.49L15.59 7.58L15.59 7.58Q15.58 8.13 15.49 10.23L15.49 10.23L15.49 10.23Q15.39 12.33 15.39 13.47L15.39 13.47L15.39 13.47Q15.39 13.65 15.39 13.92L15.39 13.92L15.39 13.92Q15.39 14.19 15.38 14.37L15.38 14.37L15.38 14.37Q15.38 14.54 15.38 14.77L15.38 14.77L15.38 14.77Q15.38 15.00 15.40 15.16L15.40 15.16L15.40 15.16Q15.42 15.31 15.44 15.48L15.44 15.48L15.44 15.48Q15.46 15.65 15.51 15.76L15.51 15.76L15.51 15.76Q15.57 15.87 15.64 15.97L15.64 15.97L15.64 15.97Q15.72 16.07 15.82 16.12L15.82 16.12L15.82 16.12Q15.93 16.17 16.06 16.18L16.06 16.18L16.06 16.18Q16.28 16.18 16.52 16.06L16.52 16.06L16.52 16.06Q16.75 15.95 16.89 15.84L16.89 15.84L16.89 15.84Q17.03 15.74 17.27 15.52ZM20.84 15.52L20.84 15.52L20.99 15.52L21.15 15.69L21.15 15.69Q20.15 17.25 19.02 17.25L19.02 17.25L19.02 17.25Q18.63 17.25 18.40 17.10L18.40 17.10L18.40 17.10Q18.16 16.95 18.02 16.50L18.02 16.50L18.02 16.50Q17.87 16.05 17.87 15.27L17.87 15.27L17.97 9.98L17.97 9.98Q17.97 8.95 17.90 8.58L17.90 8.58L17.90 8.58Q17.88 8.49 17.82 8.42L17.82 8.42L17.82 8.42Q17.77 8.35 17.69 8.31L17.69 8.31L17.69 8.31Q17.60 8.27 17.52 8.24L17.52 8.24L17.52 8.24Q17.45 8.21 17.32 8.20L17.32 8.20L17.32 8.20Q17.19 8.18 17.11 8.18L17.11 8.18L17.11 8.18Q17.03 8.17 16.88 8.16L16.88 8.16L16.88 8.16Q16.73 8.16 16.68 8.16L16.68 8.16L16.68 7.83L16.77 7.77L19.07 7.49L19.16 7.58L19.16 7.58Q19.15 8.13 19.06 10.23L19.06 10.23L19.06 10.23Q18.96 12.33 18.96 13.47L18.96 13.47L18.96 13.47Q18.96 13.65 18.96 13.92L18.96 13.92L18.96 13.92Q18.96 14.19 18.95 14.37L18.95 14.37L18.95 14.37Q18.95 14.54 18.95 14.77L18.95 14.77L18.95 14.77Q18.95 15.00 18.97 15.16L18.97 15.16L18.97 15.16Q18.98 15.31 19.01 15.48L19.01 15.48L19.01 15.48Q19.03 15.65 19.08 15.76L19.08 15.76L19.08 15.76Q19.13 15.87 19.21 15.97L19.21 15.97L19.21 15.97Q19.28 16.07 19.39 16.12L19.39 16.12L19.39 16.12Q19.50 16.17 19.63 16.18L19.63 16.18L19.63 16.18Q19.85 16.18 20.09 16.06L20.09 16.06L20.09 16.06Q20.32 15.95 20.46 15.84L20.46 15.84L20.46 15.84Q20.60 15.74 20.84 15.52ZM25.35 10.62L25.35 10.62L25.43 10.62L25.63 10.80L25.63 10.80Q23.87 12.66 21.57 15.77L21.57 15.77L21.64 15.89L21.64 15.89Q23.42 16.06 24.51 16.06L24.51 16.06L24.51 16.06Q24.79 16.06 25.03 15.98L25.03 15.98L25.03 15.98Q25.27 15.89 25.46 15.70L25.46 15.70L25.46 15.70Q25.65 15.52 25.76 15.37L25.76 15.37L25.76 15.37Q25.88 15.22 26.03 14.98L26.03 14.98L26.34 15.14L25.76 16.26L25.76 16.26Q25.53 16.72 25.21 16.96L25.21 16.96L25.21 16.96Q24.90 17.21 24.40 17.20L24.40 17.20L24.40 17.20Q24.34 17.21 24.03 17.18L24.03 17.18L24.03 17.18Q23.72 17.14 23.27 17.09L23.27 17.09L23.27 17.09Q22.83 17.04 22.60 17.02L22.60 17.02L20.97 16.86L20.97 16.86Q20.52 16.86 20.10 17.47L20.10 17.47L20.01 17.47L19.80 17.20L23.93 11.87L23.93 11.87Q23.80 11.89 23.51 11.89L23.51 11.89L23.51 11.89Q23.28 11.89 22.69 11.76L22.69 11.76L22.69 11.76Q22.09 11.63 21.83 11.63L21.83 11.63L21.83 11.63Q21.48 11.63 21.23 11.86L21.23 11.86L21.23 11.86Q20.97 12.09 20.58 12.63L20.58 12.63L20.30 12.44L21.01 11.20L21.01 11.20Q21.23 10.87 21.40 10.75L21.40 10.75L21.40 10.75Q21.58 10.62 21.88 10.62L21.88 10.62L21.88 10.62Q22.22 10.62 23.07 10.84L23.07 10.84L23.07 10.84Q23.92 11.05 24.32 11.05L24.32 11.05L24.32 11.05Q24.82 11.05 25.35 10.62ZM27.34 12.67L27.34 12.67L27.34 12.67Q27.23 13.13 27.23 13.75L27.23 13.75L27.23 13.75Q27.23 14.14 27.28 14.51L27.28 14.51L27.28 14.51Q27.33 14.89 27.46 15.30L27.46 15.30L27.46 15.30Q27.60 15.71 27.80 16.01L27.80 16.01L27.80 16.01Q28 16.32 28.34 16.52L28.34 16.52L28.34 16.52Q28.68 16.71 29.12 16.71L29.12 16.71L29.12 16.71Q29.56 16.71 29.89 16.54L29.89 16.54L29.89 16.54Q30.22 16.37 30.42 16.10L30.42 16.10L30.42 16.10Q30.62 15.83 30.74 15.46L30.74 15.46L30.74 15.46Q30.86 15.09 30.91 14.74L30.91 14.74L30.91 14.74Q30.95 14.39 30.95 14.01L30.95 14.01L30.95 14.01Q30.95 13.62 30.92 13.26L30.92 13.26L30.92 13.26Q30.88 12.91 30.76 12.50L30.76 12.50L30.76 12.50Q30.64 12.10 30.44 11.81L30.44 11.81L30.44 11.81Q30.25 11.52 29.90 11.32L29.90 11.32L29.90 11.32Q29.56 11.13 29.11 11.13L29.11 11.13L29.11 11.13Q28.51 11.13 28.02 11.53L28.02 11.53L28.02 11.53Q27.53 11.92 27.34 12.67ZM28.75 17.29L28.75 17.29L28.75 17.29Q28.05 17.29 27.52 17.04L27.52 17.04L27.52 17.04Q27.00 16.80 26.69 16.37L26.69 16.37L26.69 16.37Q26.39 15.94 26.23 15.44L26.23 15.44L26.23 15.44Q26.07 14.94 26.03 14.35L26.03 14.35L26.03 14.35Q26.03 13.47 26.19 12.79L26.19 12.79L26.19 12.79Q26.34 12.11 26.80 11.61L26.80 11.61L26.80 11.61Q27.27 11.09 27.96 10.84L27.96 10.84L27.96 10.84Q28.66 10.58 29.43 10.58L29.43 10.58L29.43 10.58Q30.17 10.58 30.72 10.85L30.72 10.85L30.72 10.85Q31.28 11.12 31.59 11.58L31.59 11.58L31.59 11.58Q31.90 12.04 32.05 12.59L32.05 12.59L32.05 12.59Q32.20 13.13 32.20 13.75L32.20 13.75L32.20 13.75Q32.20 15.36 31.39 16.26L31.39 16.26L31.39 16.26Q30.93 16.79 30.23 17.04L30.23 17.04L30.23 17.04Q29.54 17.29 28.75 17.29ZM35.36 16.84L35.36 16.84L34.38 17.17L34.17 17.08L34.17 17.08Q34.30 13.88 34.30 12.92L34.30 12.92L34.30 12.92Q34.30 12.10 34.20 11.70L34.20 11.70L34.20 11.70Q34.10 11.31 33.78 11.31L33.78 11.31L33.78 11.31Q33.64 11.31 33.46 11.38L33.46 11.38L33.46 11.38Q33.27 11.46 33.13 11.54L33.13 11.54L33.13 11.54Q32.98 11.63 32.73 11.80L32.73 11.80L32.49 11.49L32.49 11.49Q32.91 11.19 33.14 11.03L33.14 11.03L33.14 11.03Q33.38 10.86 33.76 10.68L33.76 10.68L33.76 10.68Q34.14 10.49 34.38 10.49L34.38 10.49L34.38 10.49Q34.86 10.49 35.09 10.75L35.09 10.75L35.09 10.75Q35.32 11.01 35.39 11.45L35.39 11.45L35.50 11.53L35.50 11.53Q36.26 11.07 36.90 10.80L36.90 10.80L36.90 10.80Q37.54 10.52 38.14 10.52L38.14 10.52L38.14 10.52Q38.87 10.52 39.22 10.93L39.22 10.93L39.22 10.93Q39.35 11.09 39.42 11.59L39.42 11.59L39.42 11.59Q39.48 12.09 39.49 12.48L39.49 12.48L39.49 12.48Q39.50 12.86 39.50 13.51L39.50 13.51L39.50 13.51Q39.50 15.17 39.52 15.34L39.52 15.34L39.52 15.34Q39.55 16.00 39.79 16.15L39.79 16.15L39.79 16.15Q39.93 16.25 40.17 16.25L40.17 16.25L40.17 16.25Q40.56 16.25 41.30 15.69L41.30 15.69L41.48 15.69L41.60 15.98L41.60 15.98Q41.07 16.51 40.47 16.87L40.47 16.87L40.47 16.87Q39.87 17.23 39.40 17.23L39.40 17.23L39.40 17.23Q38.40 17.23 38.40 16.00L38.40 16.00L38.47 13.60L38.47 13.60Q38.47 12.48 38.19 11.91L38.19 11.91L38.19 11.91Q37.91 11.35 37.21 11.35L37.21 11.35L37.21 11.35Q36.48 11.35 35.40 12.20L35.40 12.20L35.40 12.20Q35.31 14.38 35.31 15.46L35.31 15.46L35.31 15.46Q35.31 15.86 35.36 16.84ZM43.38 11.55L43.38 11.55L43.38 11.55Q43.00 11.95 42.87 12.41L42.87 12.41L42.87 12.41Q42.74 12.87 42.74 13.45L42.74 13.45L42.74 13.45Q42.74 13.54 42.77 13.70L42.77 13.70L42.82 13.76L45.65 12.64L45.65 12.64Q45.83 12.58 45.83 12.27L45.83 12.27L45.83 12.27Q45.83 11.79 45.47 11.38L45.47 11.38L45.47 11.38Q45.11 10.96 44.56 10.96L44.56 10.96L44.56 10.96Q43.86 10.96 43.38 11.55ZM46.74 12.63L46.74 12.63L42.79 14.33L42.79 14.33Q42.83 14.69 42.94 15.02L42.94 15.02L42.94 15.02Q43.05 15.35 43.26 15.65L43.26 15.65L43.26 15.65Q43.46 15.95 43.81 16.13L43.81 16.13L43.81 16.13Q44.15 16.30 44.60 16.30L44.60 16.30L44.60 16.30Q45.53 16.30 46.75 15.35L46.75 15.35L46.91 15.38L47.09 15.63L47.09 15.63Q45.36 17.26 43.90 17.26L43.90 17.26L43.90 17.26Q43.36 17.26 42.94 17.06L42.94 17.06L42.94 17.06Q42.53 16.86 42.27 16.55L42.27 16.55L42.27 16.55Q42.02 16.23 41.86 15.78L41.86 15.78L41.86 15.78Q41.70 15.33 41.64 14.88L41.64 14.88L41.64 14.88Q41.58 14.44 41.58 13.92L41.58 13.92L41.58 13.92Q41.58 12.48 42.29 11.66L42.29 11.66L42.29 11.66Q42.80 11.05 43.52 10.73L43.52 10.73L43.52 10.73Q44.25 10.40 45.05 10.40L45.05 10.40L45.05 10.40Q45.94 10.40 46.48 10.95L46.48 10.95L46.48 10.95Q47.03 11.50 47.03 12.33L47.03 12.33L47.03 12.33Q47.03 12.41 46.98 12.47L46.98 12.47L46.98 12.47Q46.94 12.53 46.89 12.55L46.89 12.55L46.89 12.55Q46.85 12.58 46.74 12.63ZM53.89 13.31L53.89 12.95L57.76 12.79L57.76 12.79Q57.83 16.29 57.83 16.63L57.83 16.63L57.83 16.63Q55.14 17.33 54.07 17.33L54.07 17.33L54.07 17.33Q53.25 17.33 52.50 17.05L52.50 17.05L52.50 17.05Q51.75 16.76 51.19 16.21L51.19 16.21L51.19 16.21Q50.52 15.53 50.20 14.58L50.20 14.58L50.20 14.58Q49.89 13.62 49.89 12.55L49.89 12.55L49.89 12.55Q49.89 10.08 51.18 8.79L51.18 8.79L51.18 8.79Q51.94 8.03 52.97 7.67L52.97 7.67L52.97 7.67Q54.00 7.30 55.17 7.30L55.17 7.30L55.17 7.30Q56.10 7.30 56.82 7.68L56.82 7.68L56.82 7.68Q57.54 8.05 58.09 8.89L58.09 8.89L57.29 9.69L57.11 9.67L57.11 9.67Q56.66 8.78 56.04 8.38L56.04 8.38L56.04 8.38Q55.41 7.99 54.54 7.99L54.54 7.99L54.54 7.99Q53.78 7.99 53.18 8.24L53.18 8.24L53.18 8.24Q52.59 8.49 52.21 8.90L52.21 8.90L52.21 8.90Q51.84 9.32 51.59 9.89L51.59 9.89L51.59 9.89Q51.35 10.47 51.25 11.06L51.25 11.06L51.25 11.06Q51.15 11.66 51.15 12.33L51.15 12.33L51.15 12.33Q51.15 12.96 51.29 13.56L51.29 13.56L51.29 13.56Q51.43 14.16 51.73 14.71L51.73 14.71L51.73 14.71Q52.04 15.27 52.49 15.69L52.49 15.69L52.49 15.69Q52.93 16.10 53.59 16.35L53.59 16.35L53.59 16.35Q54.25 16.60 55.04 16.60L55.04 16.60L55.04 16.60Q55.74 16.60 56.36 16.46L56.36 16.46L56.36 16.46Q56.46 16.44 56.52 16.35L56.52 16.35L56.52 16.35Q56.59 16.27 56.61 16.10L56.61 16.10L56.61 16.10Q56.64 15.93 56.64 15.83L56.64 15.83L56.64 15.83Q56.65 15.72 56.64 15.49L56.64 15.49L56.64 15.49Q56.64 15.25 56.64 15.22L56.64 15.22L56.64 15.22Q56.64 15.18 56.64 15.00L56.64 15.00L56.64 15.00Q56.65 14.81 56.65 14.66L56.65 14.66L56.65 14.66Q56.66 14.50 56.64 14.28L56.64 14.28L56.64 14.28Q56.62 14.06 56.58 13.91L56.58 13.91L56.58 13.91Q56.55 13.75 56.46 13.64L56.46 13.64L56.46 13.64Q56.38 13.52 56.25 13.51L56.25 13.51L56.25 13.51Q55.34 13.43 53.98 13.38L53.98 13.38L53.89 13.31ZM63.70 11.66L62.95 12.35L62.78 12.27L62.78 12.27Q62.72 11.93 62.54 11.70L62.54 11.70L62.54 11.70Q62.36 11.46 62.04 11.46L62.04 11.46L62.04 11.46Q61.65 11.46 61.38 11.72L61.38 11.72L61.38 11.72Q61.11 11.98 60.96 12.33L60.96 12.33L60.96 12.33Q60.87 12.54 60.85 12.91L60.85 12.91L60.85 12.91Q60.83 13.28 60.85 13.94L60.85 13.94L60.85 13.94Q60.87 14.59 60.87 14.71L60.87 14.71L60.87 14.71Q60.87 15.77 60.91 16.84L60.91 16.84L59.92 17.13L59.72 17.01L59.72 17.01Q59.88 15.05 59.88 13.69L59.88 13.69L59.88 13.69Q59.88 13.62 59.88 13.50L59.88 13.50L59.88 13.50Q59.88 13.23 59.88 13.10L59.88 13.10L59.88 13.10Q59.88 12.97 59.88 12.73L59.88 12.73L59.88 12.73Q59.87 12.48 59.85 12.35L59.85 12.35L59.85 12.35Q59.83 12.21 59.81 12.02L59.81 12.02L59.81 12.02Q59.79 11.83 59.74 11.73L59.74 11.73L59.74 11.73Q59.69 11.63 59.63 11.52L59.63 11.52L59.63 11.52Q59.57 11.41 59.48 11.36L59.48 11.36L59.48 11.36Q59.39 11.32 59.28 11.32L59.28 11.32L59.28 11.32Q58.96 11.32 58.19 11.76L58.19 11.76L58.02 11.52L58.02 11.52Q58.45 11.18 58.66 11.03L58.66 11.03L58.66 11.03Q58.87 10.87 59.26 10.67L59.26 10.67L59.26 10.67Q59.64 10.47 59.91 10.47L59.91 10.47L59.91 10.47Q60.78 10.47 60.92 11.48L60.92 11.48L61.06 11.53L61.06 11.53Q62.07 10.55 62.60 10.55L62.60 10.55L62.60 10.55Q63.60 10.55 63.70 11.66L63.70 11.66ZM65.02 12.67L65.02 12.67L65.02 12.67Q64.91 13.13 64.91 13.75L64.91 13.75L64.91 13.75Q64.91 14.14 64.96 14.51L64.96 14.51L64.96 14.51Q65.00 14.89 65.14 15.30L65.14 15.30L65.14 15.30Q65.27 15.71 65.47 16.01L65.47 16.01L65.47 16.01Q65.67 16.32 66.01 16.52L66.01 16.52L66.01 16.52Q66.36 16.71 66.79 16.71L66.79 16.71L66.79 16.71Q67.23 16.71 67.56 16.54L67.56 16.54L67.56 16.54Q67.89 16.37 68.09 16.10L68.09 16.10L68.09 16.10Q68.29 15.83 68.41 15.46L68.41 15.46L68.41 15.46Q68.54 15.09 68.58 14.74L68.58 14.74L68.58 14.74Q68.63 14.39 68.63 14.01L68.63 14.01L68.63 14.01Q68.63 13.62 68.59 13.26L68.59 13.26L68.59 13.26Q68.55 12.91 68.43 12.50L68.43 12.50L68.43 12.50Q68.31 12.10 68.12 11.81L68.12 11.81L68.12 11.81Q67.92 11.52 67.58 11.32L67.58 11.32L67.58 11.32Q67.23 11.13 66.78 11.13L66.78 11.13L66.78 11.13Q66.18 11.13 65.69 11.53L65.69 11.53L65.69 11.53Q65.20 11.92 65.02 12.67ZM66.42 17.29L66.42 17.29L66.42 17.29Q65.72 17.29 65.20 17.04L65.20 17.04L65.20 17.04Q64.67 16.80 64.37 16.37L64.37 16.37L64.37 16.37Q64.06 15.94 63.90 15.44L63.90 15.44L63.90 15.44Q63.75 14.94 63.70 14.35L63.70 14.35L63.70 14.35Q63.70 13.47 63.86 12.79L63.86 12.79L63.86 12.79Q64.01 12.11 64.47 11.61L64.47 11.61L64.47 11.61Q64.94 11.09 65.64 10.84L65.64 10.84L65.64 10.84Q66.33 10.58 67.10 10.58L67.10 10.58L67.10 10.58Q67.84 10.58 68.40 10.85L68.40 10.85L68.40 10.85Q68.95 11.12 69.27 11.58L69.27 11.58L69.27 11.58Q69.58 12.04 69.73 12.59L69.73 12.59L69.73 12.59Q69.88 13.13 69.88 13.75L69.88 13.75L69.88 13.75Q69.88 15.36 69.06 16.26L69.06 16.26L69.06 16.26Q68.60 16.79 67.90 17.04L67.90 17.04L67.90 17.04Q67.21 17.29 66.42 17.29ZM78.55 15.59L78.66 15.62L78.81 15.89L78.81 15.89Q78.38 16.26 78.08 16.50L78.08 16.50L78.08 16.50Q77.77 16.74 77.33 16.97L77.33 16.97L77.33 16.97Q76.89 17.20 76.56 17.20L76.56 17.20L76.56 17.20Q75.69 17.20 75.59 16.19L75.59 16.19L75.48 16.18L75.48 16.18Q73.77 17.23 72.85 17.23L72.85 17.23L72.85 17.23Q72.42 17.23 72.12 17.08L72.12 17.08L72.12 17.08Q71.81 16.93 71.66 16.67L71.66 16.67L71.66 16.67Q71.51 16.41 71.45 16.13L71.45 16.13L71.45 16.13Q71.38 15.85 71.38 15.52L71.38 15.52L71.38 15.52Q71.38 15.29 71.41 14.36L71.41 14.36L71.41 14.36Q71.44 13.43 71.44 13.24L71.44 13.24L71.44 13.24Q71.44 12.32 71.39 12.01L71.39 12.01L71.39 12.01Q71.34 11.70 71.20 11.55L71.20 11.55L71.20 11.55Q71.09 11.42 70.81 11.42L70.81 11.42L70.81 11.42Q70.54 11.42 69.82 11.84L69.82 11.84L69.63 11.56L69.63 11.56Q70.05 11.24 70.26 11.08L70.26 11.08L70.26 11.08Q70.48 10.93 70.87 10.74L70.87 10.74L70.87 10.74Q71.26 10.54 71.53 10.54L71.53 10.54L71.53 10.54Q72.09 10.54 72.28 10.90L72.28 10.90L72.28 10.90Q72.45 11.22 72.47 12.29L72.47 12.29L72.47 12.29Q72.47 12.50 72.46 13.00L72.46 13.00L72.46 13.00Q72.46 13.43 72.46 13.67L72.46 13.67L72.46 13.67Q72.46 14.90 72.55 15.34L72.55 15.34L72.55 15.34Q72.73 16.20 73.39 16.34L73.39 16.34L73.39 16.34Q73.55 16.38 73.72 16.38L73.72 16.38L73.72 16.38Q74.01 16.38 74.38 16.25L74.38 16.25L74.38 16.25Q74.74 16.11 74.95 15.99L74.95 15.99L74.95 15.99Q75.16 15.87 75.55 15.63L75.55 15.63L75.55 15.63Q75.55 15.19 75.56 14.09L75.56 14.09L75.56 14.09Q75.56 12.99 75.56 12.48L75.56 12.48L75.56 12.48Q75.56 11.29 75.55 11.00L75.55 11.00L76.63 10.51L76.82 10.66L76.82 10.66Q76.64 12.69 76.64 14.55L76.64 14.55L76.64 14.55Q76.64 14.83 76.65 14.98L76.65 14.98L76.65 14.98Q76.65 15.12 76.67 15.35L76.67 15.35L76.67 15.35Q76.69 15.58 76.73 15.70L76.73 15.70L76.73 15.70Q76.77 15.81 76.85 15.94L76.85 15.94L76.85 15.94Q76.92 16.07 77.04 16.13L77.04 16.13L77.04 16.13Q77.16 16.18 77.33 16.18L77.33 16.18L77.33 16.18Q77.75 16.18 78.55 15.59L78.55 15.59ZM80.08 19.97L80.08 19.97L78.96 20.41L78.81 20.25L78.81 20.25Q78.89 19.28 78.89 15.77L78.89 15.77L78.89 12.68L78.89 12.68Q78.89 12.13 78.76 11.72L78.76 11.72L78.76 11.72Q78.63 11.32 78.35 11.32L78.35 11.32L78.35 11.32Q78.02 11.32 77.33 11.73L77.33 11.73L77.13 11.46L77.13 11.46Q78.32 10.51 79.04 10.51L79.04 10.51L79.04 10.51Q79.48 10.51 79.69 10.78L79.69 10.78L79.69 10.78Q79.90 11.06 79.95 11.56L79.95 11.56L80.06 11.61L80.06 11.61Q81.35 10.58 82.63 10.58L82.63 10.58L82.63 10.58Q83.04 10.58 83.38 10.73L83.38 10.73L83.38 10.73Q83.71 10.87 83.93 11.10L83.93 11.10L83.93 11.10Q84.14 11.33 84.29 11.65L84.29 11.65L84.29 11.65Q84.43 11.96 84.49 12.27L84.49 12.27L84.49 12.27Q84.55 12.59 84.55 12.92L84.55 12.92L84.55 12.92Q84.55 13.69 84.28 14.46L84.28 14.46L84.28 14.46Q84.01 15.24 83.55 15.86L83.55 15.86L83.55 15.86Q83.08 16.47 82.39 16.86L82.39 16.86L82.39 16.86Q81.70 17.25 80.91 17.25L80.91 17.25L80.91 17.25Q80.53 17.25 80.08 17.13L80.08 17.13L79.95 17.25L79.95 17.25Q79.99 19.12 80.08 19.97ZM79.97 16.08L79.97 16.17L79.97 16.17Q80.54 16.69 81.20 16.69L81.20 16.69L81.20 16.69Q81.70 16.69 82.08 16.51L82.08 16.51L82.08 16.51Q82.46 16.32 82.70 16.04L82.70 16.04L82.70 16.04Q82.94 15.75 83.10 15.36L83.10 15.36L83.10 15.36Q83.25 14.96 83.32 14.57L83.32 14.57L83.32 14.57Q83.38 14.17 83.38 13.75L83.38 13.75L83.38 13.75Q83.38 12.80 82.98 12.12L82.98 12.12L82.98 12.12Q82.58 11.45 81.94 11.45L81.94 11.45L81.94 11.45Q81.42 11.45 80.96 11.65L80.96 11.65L80.96 11.65Q80.51 11.85 79.99 12.26L79.99 12.26L79.99 12.26Q79.99 12.29 79.97 12.88L79.97 12.88L79.97 12.88Q79.95 13.47 79.95 13.56L79.95 13.56L79.95 13.56Q79.95 13.79 79.95 14.06L79.95 14.06L79.95 14.06Q79.95 14.33 79.95 14.58L79.95 14.58L79.95 14.58Q79.95 14.83 79.96 15.07L79.96 15.07L79.96 15.07Q79.96 15.31 79.96 15.50L79.96 15.50L79.96 15.50Q79.97 15.70 79.97 15.85L79.97 15.85L79.97 15.85Q79.97 16.00 79.97 16.08L79.97 16.08Z"></path></g><!----><!----><g data-v-423bf9ae="" id="fb3c2329-69f2-4de7-ae49-68bbedee80f4" fill="white" transform="matrix(5.928853263271574,0,0,5.928853263271574,257.86668972778205,110.41107465139575)"><path d="M10.43 4.44C10.61 4.42 10.71 4.34 10.71 4.19L10.71 3.92L9.53 3.92L8.81 3.92L7.63 3.92L7.63 4.19C7.63 4.34 7.73 4.42 7.91 4.44L8.04 4.44C8.11 4.44 8.22 4.45 8.36 4.45C8.50 4.45 8.64 4.47 8.81 4.47L8.81 8.53L2.60 8.53L2.60 4.47C2.77 4.47 2.93 4.45 3.07 4.45C3.21 4.45 3.30 4.44 3.37 4.44L3.51 4.44C3.70 4.42 3.78 4.34 3.78 4.19L3.78 3.92L2.60 3.92L1.89 3.92L0.70 3.92L0.70 4.19C0.70 4.34 0.80 4.42 0.98 4.44L1.12 4.44C1.19 4.44 1.29 4.45 1.43 4.45C1.57 4.45 1.72 4.47 1.89 4.47L1.89 13.26C1.72 13.26 1.57 13.27 1.43 13.27C1.29 13.27 1.19 13.29 1.12 13.29L0.98 13.29C0.80 13.30 0.70 13.38 0.70 13.54L0.70 13.82L1.89 13.82L2.60 13.82L3.78 13.82L3.78 13.54C3.78 13.38 3.70 13.30 3.51 13.29L3.37 13.29C3.30 13.29 3.21 13.27 3.07 13.27C2.93 13.27 2.77 13.26 2.60 13.26L2.60 9.07L8.81 9.07L8.81 13.26C8.64 13.26 8.50 13.27 8.36 13.27C8.22 13.27 8.11 13.29 8.04 13.29L7.91 13.29C7.73 13.30 7.63 13.38 7.63 13.54L7.63 13.82L8.81 13.82L9.53 13.82L10.71 13.82L10.71 13.54C10.71 13.38 10.61 13.30 10.43 13.29L10.30 13.29C10.23 13.29 10.12 13.27 9.98 13.27C9.84 13.27 9.70 13.26 9.53 13.26L9.53 4.47C9.70 4.47 9.84 4.45 9.98 4.45C10.12 4.45 10.23 4.44 10.30 4.44ZM26.40 4.16L26.40 3.92L19.25 3.92L19.25 3.92L19.25 6.03L19.60 6.03C19.80 6.03 19.88 5.92 19.89 5.70C19.89 5.68 19.91 5.61 19.92 5.52C19.94 5.42 19.94 5.26 19.95 5.08C19.96 4.90 19.98 4.72 19.99 4.51L25.45 4.51L19.15 13.31C19.10 13.40 19.08 13.47 19.08 13.55L19.08 13.82L26.35 13.82L26.35 13.82L26.35 11.69L26.01 11.69C25.82 11.69 25.73 11.82 25.72 12.04C25.72 12.05 25.70 12.12 25.69 12.22C25.68 12.32 25.68 12.46 25.66 12.64C25.65 12.82 25.63 13.02 25.62 13.23L20.02 13.23L26.31 4.45C26.38 4.35 26.40 4.26 26.40 4.16ZM40.07 9.32L40.07 9.72C40.07 9.76 40.10 9.80 40.12 9.83C40.15 9.86 40.19 9.87 40.25 9.87L42.15 9.87L42.15 12.54C41.93 12.67 41.71 12.78 41.50 12.88C41.29 12.98 41.05 13.08 40.81 13.15C40.57 13.22 40.31 13.27 40.03 13.30C39.75 13.33 39.44 13.34 39.10 13.34C38.49 13.34 37.93 13.24 37.42 13.03C36.92 12.82 36.48 12.53 36.12 12.15C35.76 11.77 35.48 11.30 35.28 10.74C35.08 10.18 34.97 9.56 34.97 8.86C34.97 8.18 35.08 7.56 35.28 7.01C35.48 6.47 35.76 5.99 36.12 5.61C36.48 5.24 36.93 4.94 37.45 4.73C37.97 4.52 38.54 4.42 39.19 4.42C40.36 4.42 41.30 4.58 41.99 4.90C42.03 5.81 42.06 6.31 42.06 6.41C42.07 6.64 42.17 6.75 42.36 6.75L42.70 6.75L42.70 4.51C42.27 4.31 41.71 4.14 41.01 4.00C40.31 3.86 39.72 3.81 39.21 3.81C38.46 3.81 37.77 3.92 37.16 4.16C36.54 4.40 36.02 4.75 35.59 5.18C35.15 5.61 34.83 6.15 34.59 6.78C34.36 7.39 34.24 8.09 34.24 8.86C34.24 9.63 34.36 10.32 34.59 10.95C34.83 11.58 35.15 12.10 35.57 12.54C35.99 12.99 36.51 13.33 37.10 13.57C37.69 13.80 38.33 13.93 39.05 13.93C39.47 13.93 39.84 13.90 40.19 13.86C40.54 13.80 40.87 13.73 41.17 13.65C41.48 13.55 41.76 13.44 42.03 13.30C42.29 13.16 42.55 13.01 42.80 12.84L42.80 9.32Z"></path></g></svg>